<svg xmlns="http://www.w3.org/2000/svg" xmlns:xlink="http://www.w3.org/1999/xlink" version="1.1" class="marks" width="1034" height="382" viewBox="0 0 1034 382"><rect width="1034" height="382" fill="white"/><g fill="none" stroke-miterlimit="10" transform="translate(53,32)"><g class="mark-group role-frame root" role="graphics-object" aria-roledescription="group mark container"><g transform="translate(0,0)"><path class="background" aria-hidden="true" d="M0.5,0.5h800v300h-800Z" stroke="#ddd"/><g><g class="mark-group role-axis" aria-hidden="true"><g transform="translate(0.5,0.5)"><path class="background" aria-hidden="true" d="M0,0h0v0h0Z" pointer-events="none"/><g><g class="mark-rule role-axis-grid" pointer-events="none"><line transform="translate(0,300)" x2="800" y2="0" stroke="#ddd" stroke-width="1" opacity="1"/><line transform="translate(0,257)" x2="800" y2="0" stroke="#ddd" stroke-width="1" opacity="1"/><line transform="translate(0,214)" x2="800" y2="0" stroke="#ddd" stroke-width="1" opacity="1"/><line transform="translate(0,171)" x2="800" y2="0" stroke="#ddd" stroke-width="1" opacity="1"/><line transform="translate(0,129)" x2="800" y2="0" stroke="#ddd" stroke-width="1" opacity="1"/><line transform="translate(0,86)" x2="800" y2="0" stroke="#ddd" stroke-width="1" opacity="1"/><line transform="translate(0,43)" x2="800" y2="0" stroke="#ddd" stroke-width="1" opacity="1"/><line transform="translate(0,0)" x2="800" y2="0" stroke="#ddd" stroke-width="1" opacity="1"/></g></g><path class="foreground" aria-hidden="true" d="" pointer-events="none" display="none"/></g></g><g class="mark-group role-axis" role="graphics-symbol" aria-roledescription="axis" aria-label="X-axis titled '年' for a discrete scale with 48 values: 1970, 1971, 1972, 1973, 1974, ending with 2017"><g transform="translate(0.5,300.5)"><path class="background" aria-hidden="true" d="M0,0h0v0h0Z" pointer-events="none"/><g><g class="mark-rule role-axis-tick" pointer-events="none"><line transform="translate(8,0)" x2="0" y2="5" stroke="#888" stroke-width="1" opacity="1"/><line transform="translate(25,0)" x2="0" y2="5" stroke="#888" stroke-width="1" opacity="1"/><line transform="translate(42,0)" x2="0" y2="5" stroke="#888" stroke-width="1" opacity="1"/><line transform="translate(58,0)" x2="0" y2="5" stroke="#888" stroke-width="1" opacity="1"/><line transform="translate(75,0)" x2="0" y2="5" stroke="#888" stroke-width="1" opacity="1"/><line transform="translate(92,0)" x2="0" y2="5" stroke="#888" stroke-width="1" opacity="1"/><line transform="translate(108,0)" x2="0" y2="5" stroke="#888" stroke-width="1" opacity="1"/><line transform="translate(125,0)" x2="0" y2="5" stroke="#888" stroke-width="1" opacity="1"/><line transform="translate(142,0)" x2="0" y2="5" stroke="#888" stroke-width="1" opacity="1"/><line transform="translate(158,0)" x2="0" y2="5" stroke="#888" stroke-width="1" opacity="1"/><line transform="translate(175,0)" x2="0" y2="5" stroke="#888" stroke-width="1" opacity="1"/><line transform="translate(192,0)" x2="0" y2="5" stroke="#888" stroke-width="1" opacity="1"/><line transform="translate(208,0)" x2="0" y2="5" stroke="#888" stroke-width="1" opacity="1"/><line transform="translate(225,0)" x2="0" y2="5" stroke="#888" stroke-width="1" opacity="1"/><line transform="translate(242,0)" x2="0" y2="5" stroke="#888" stroke-width="1" opacity="1"/><line transform="translate(258,0)" x2="0" y2="5" stroke="#888" stroke-width="1" opacity="1"/><line transform="translate(275,0)" x2="0" y2="5" stroke="#888" stroke-width="1" opacity="1"/><line transform="translate(292,0)" x2="0" y2="5" stroke="#888" stroke-width="1" opacity="1"/><line transform="translate(308,0)" x2="0" y2="5" stroke="#888" stroke-width="1" opacity="1"/><line transform="translate(325,0)" x2="0" y2="5" stroke="#888" stroke-width="1" opacity="1"/><line transform="translate(342,0)" x2="0" y2="5" stroke="#888" stroke-width="1" opacity="1"/><line transform="translate(358,0)" x2="0" y2="5" stroke="#888" stroke-width="1" opacity="1"/><line transform="translate(375,0)" x2="0" y2="5" stroke="#888" stroke-width="1" opacity="1"/><line transform="translate(392,0)" x2="0" y2="5" stroke="#888" stroke-width="1" opacity="1"/><line transform="translate(408,0)" x2="0" y2="5" stroke="#888" stroke-width="1" opacity="1"/><line transform="translate(425,0)" x2="0" y2="5" stroke="#888" stroke-width="1" opacity="1"/><line transform="translate(442,0)" x2="0" y2="5" stroke="#888" stroke-width="1" opacity="1"/><line transform="translate(458,0)" x2="0" y2="5" stroke="#888" stroke-width="1" opacity="1"/><line transform="translate(475,0)" x2="0" y2="5" stroke="#888" stroke-width="1" opacity="1"/><line transform="translate(492,0)" x2="0" y2="5" stroke="#888" stroke-width="1" opacity="1"/><line transform="translate(508,0)" x2="0" y2="5" stroke="#888" stroke-width="1" opacity="1"/><line transform="translate(525,0)" x2="0" y2="5" stroke="#888" stroke-width="1" opacity="1"/><line transform="translate(542,0)" x2="0" y2="5" stroke="#888" stroke-width="1" opacity="1"/><line transform="translate(558,0)" x2="0" y2="5" stroke="#888" stroke-width="1" opacity="1"/><line transform="translate(575,0)" x2="0" y2="5" stroke="#888" stroke-width="1" opacity="1"/><line transform="translate(592,0)" x2="0" y2="5" stroke="#888" stroke-width="1" opacity="1"/><line transform="translate(608,0)" x2="0" y2="5" stroke="#888" stroke-width="1" opacity="1"/><line transform="translate(625,0)" x2="0" y2="5" stroke="#888" stroke-width="1" opacity="1"/><line transform="translate(642,0)" x2="0" y2="5" stroke="#888" stroke-width="1" opacity="1"/><line transform="translate(658,0)" x2="0" y2="5" stroke="#888" stroke-width="1" opacity="1"/><line transform="translate(675,0)" x2="0" y2="5" stroke="#888" stroke-width="1" opacity="1"/><line transform="translate(692,0)" x2="0" y2="5" stroke="#888" stroke-width="1" opacity="1"/><line transform="translate(708,0)" x2="0" y2="5" stroke="#888" stroke-width="1" opacity="1"/><line transform="translate(725,0)" x2="0" y2="5" stroke="#888" stroke-width="1" opacity="1"/><line transform="translate(742,0)" x2="0" y2="5" stroke="#888" stroke-width="1" opacity="1"/><line transform="translate(758,0)" x2="0" y2="5" stroke="#888" stroke-width="1" opacity="1"/><line transform="translate(775,0)" x2="0" y2="5" stroke="#888" stroke-width="1" opacity="1"/><line transform="translate(792,0)" x2="0" y2="5" stroke="#888" stroke-width="1" opacity="1"/></g><g class="mark-text role-axis-label" pointer-events="none"><text text-anchor="end" transform="translate(8.333333333333314,7) rotate(315) translate(0,8)" font-family="sans-serif" font-size="10px" fill="#000" opacity="1">1970</text><text text-anchor="end" transform="translate(24.999999999999982,7) rotate(315) translate(0,8)" font-family="sans-serif" font-size="10px" fill="#000" opacity="1">1971</text><text text-anchor="end" transform="translate(41.66666666666665,7) rotate(315) translate(0,8)" font-family="sans-serif" font-size="10px" fill="#000" opacity="1">1972</text><text text-anchor="end" transform="translate(58.333333333333314,7) rotate(315) translate(0,8)" font-family="sans-serif" font-size="10px" fill="#000" opacity="1">1973</text><text text-anchor="end" transform="translate(74.99999999999999,7) rotate(315) translate(0,8)" font-family="sans-serif" font-size="10px" fill="#000" opacity="1">1974</text><text text-anchor="end" transform="translate(91.66666666666666,7) rotate(315) translate(0,8)" font-family="sans-serif" font-size="10px" fill="#000" opacity="1">1975</text><text text-anchor="end" transform="translate(108.33333333333331,7) rotate(315) translate(0,8)" font-family="sans-serif" font-size="10px" fill="#000" opacity="1">1976</text><text text-anchor="end" transform="translate(124.99999999999999,7) rotate(315) translate(0,8)" font-family="sans-serif" font-size="10px" fill="#000" opacity="1">1977</text><text text-anchor="end" transform="translate(141.66666666666666,7) rotate(315) translate(0,8)" font-family="sans-serif" font-size="10px" fill="#000" opacity="1">1978</text><text text-anchor="end" transform="translate(158.33333333333331,7) rotate(315) translate(0,8)" font-family="sans-serif" font-size="10px" fill="#000" opacity="1">1979</text><text text-anchor="end" transform="translate(175,7) rotate(315) translate(0,8)" font-family="sans-serif" font-size="10px" fill="#000" opacity="1">1980</text><text text-anchor="end" transform="translate(191.66666666666666,7) rotate(315) translate(0,8)" font-family="sans-serif" font-size="10px" fill="#000" opacity="1">1981</text><text text-anchor="end" transform="translate(208.33333333333331,7) rotate(315) translate(0,8)" font-family="sans-serif" font-size="10px" fill="#000" opacity="1">1982</text><text text-anchor="end" transform="translate(225,7) rotate(315) translate(0,8)" font-family="sans-serif" font-size="10px" fill="#000" opacity="1">1983</text><text text-anchor="end" transform="translate(241.66666666666666,7) rotate(315) translate(0,8)" font-family="sans-serif" font-size="10px" fill="#000" opacity="1">1984</text><text text-anchor="end" transform="translate(258.33333333333337,7) rotate(315) translate(0,8)" font-family="sans-serif" font-size="10px" fill="#000" opacity="1">1985</text><text text-anchor="end" transform="translate(275,7) rotate(315) translate(0,8)" font-family="sans-serif" font-size="10px" fill="#000" opacity="1">1986</text><text text-anchor="end" transform="translate(291.6666666666667,7) rotate(315) translate(0,8)" font-family="sans-serif" font-size="10px" fill="#000" opacity="1">1987</text><text text-anchor="end" transform="translate(308.3333333333333,7) rotate(315) translate(0,8)" font-family="sans-serif" font-size="10px" fill="#000" opacity="1">1988</text><text text-anchor="end" transform="translate(325,7) rotate(315) translate(0,8)" font-family="sans-serif" font-size="10px" fill="#000" opacity="1">1989</text><text text-anchor="end" transform="translate(341.6666666666667,7) rotate(315) translate(0,8)" font-family="sans-serif" font-size="10px" fill="#000" opacity="1">1990</text><text text-anchor="end" transform="translate(358.3333333333333,7) rotate(315) translate(0,8)" font-family="sans-serif" font-size="10px" fill="#000" opacity="1">1991</text><text text-anchor="end" transform="translate(375,7) rotate(315) translate(0,8)" font-family="sans-serif" font-size="10px" fill="#000" opacity="1">1992</text><text text-anchor="end" transform="translate(391.6666666666667,7) rotate(315) translate(0,8)" font-family="sans-serif" font-size="10px" fill="#000" opacity="1">1993</text><text text-anchor="end" transform="translate(408.3333333333333,7) rotate(315) translate(0,8)" font-family="sans-serif" font-size="10px" fill="#000" opacity="1">1994</text><text text-anchor="end" transform="translate(425,7) rotate(315) translate(0,8)" font-family="sans-serif" font-size="10px" fill="#000" opacity="1">1995</text><text text-anchor="end" transform="translate(441.6666666666667,7) rotate(315) translate(0,8)" font-family="sans-serif" font-size="10px" fill="#000" opacity="1">1996</text><text text-anchor="end" transform="translate(458.33333333333337,7) rotate(315) translate(0,8)" font-family="sans-serif" font-size="10px" fill="#000" opacity="1">1997</text><text text-anchor="end" transform="translate(475,7) rotate(315) translate(0,8)" font-family="sans-serif" font-size="10px" fill="#000" opacity="1">1998</text><text text-anchor="end" transform="translate(491.6666666666667,7) rotate(315) translate(0,8)" font-family="sans-serif" font-size="10px" fill="#000" opacity="1">1999</text><text text-anchor="end" transform="translate(508.33333333333337,7) rotate(315) translate(0,8)" font-family="sans-serif" font-size="10px" fill="#000" opacity="1">2000</text><text text-anchor="end" transform="translate(525,7) rotate(315) translate(0,8)" font-family="sans-serif" font-size="10px" fill="#000" opacity="1">2001</text><text text-anchor="end" transform="translate(541.6666666666667,7) rotate(315) translate(0,8)" font-family="sans-serif" font-size="10px" fill="#000" opacity="1">2002</text><text text-anchor="end" transform="translate(558.3333333333333,7) rotate(315) translate(0,8)" font-family="sans-serif" font-size="10px" fill="#000" opacity="1">2003</text><text text-anchor="end" transform="translate(575,7) rotate(315) translate(0,8)" font-family="sans-serif" font-size="10px" fill="#000" opacity="1">2004</text><text text-anchor="end" transform="translate(591.6666666666667,7) rotate(315) translate(0,8)" font-family="sans-serif" font-size="10px" fill="#000" opacity="1">2005</text><text text-anchor="end" transform="translate(608.3333333333333,7) rotate(315) translate(0,8)" font-family="sans-serif" font-size="10px" fill="#000" opacity="1">2006</text><text text-anchor="end" transform="translate(625,7) rotate(315) translate(0,8)" font-family="sans-serif" font-size="10px" fill="#000" opacity="1">2007</text><text text-anchor="end" transform="translate(641.6666666666667,7) rotate(315) translate(0,8)" font-family="sans-serif" font-size="10px" fill="#000" opacity="1">2008</text><text text-anchor="end" transform="translate(658.3333333333333,7) rotate(315) translate(0,8)" font-family="sans-serif" font-size="10px" fill="#000" opacity="1">2009</text><text text-anchor="end" transform="translate(675,7) rotate(315) translate(0,8)" font-family="sans-serif" font-size="10px" fill="#000" opacity="1">2010</text><text text-anchor="end" transform="translate(691.6666666666667,7) rotate(315) translate(0,8)" font-family="sans-serif" font-size="10px" fill="#000" opacity="1">2011</text><text text-anchor="end" transform="translate(708.3333333333333,7) rotate(315) translate(0,8)" font-family="sans-serif" font-size="10px" fill="#000" opacity="1">2012</text><text text-anchor="end" transform="translate(725,7) rotate(315) translate(0,8)" font-family="sans-serif" font-size="10px" fill="#000" opacity="1">2013</text><text text-anchor="end" transform="translate(741.6666666666667,7) rotate(315) translate(0,8)" font-family="sans-serif" font-size="10px" fill="#000" opacity="1">2014</text><text text-anchor="end" transform="translate(758.3333333333333,7) rotate(315) translate(0,8)" font-family="sans-serif" font-size="10px" fill="#000" opacity="1">2015</text><text text-anchor="end" transform="translate(775,7) rotate(315) translate(0,8)" font-family="sans-serif" font-size="10px" fill="#000" opacity="1">2016</text><text text-anchor="end" transform="translate(791.6666666666667,7) rotate(315) translate(0,8)" font-family="sans-serif" font-size="10px" fill="#000" opacity="1">2017</text></g><g class="mark-rule role-axis-domain" pointer-events="none"><line transform="translate(0,0)" x2="800" y2="0" stroke="#888" stroke-width="1" opacity="1"/></g><g class="mark-text role-axis-title" pointer-events="none"><text text-anchor="middle" transform="translate(400,42.80143155740217)" font-family="sans-serif" font-size="11px" font-weight="bold" fill="#000" opacity="1">年</text></g></g><path class="foreground" aria-hidden="true" d="" pointer-events="none" display="none"/></g></g><g class="mark-group role-axis" role="graphics-symbol" aria-roledescription="axis" aria-label="Y-axis titled 'エピソード数' for a linear scale with values from 0 to 1,400"><g transform="translate(0.5,0.5)"><path class="background" aria-hidden="true" d="M0,0h0v0h0Z" pointer-events="none"/><g><g class="mark-rule role-axis-tick" pointer-events="none"><line transform="translate(0,300)" x2="-5" y2="0" stroke="#888" stroke-width="1" opacity="1"/><line transform="translate(0,257)" x2="-5" y2="0" stroke="#888" stroke-width="1" opacity="1"/><line transform="translate(0,214)" x2="-5" y2="0" stroke="#888" stroke-width="1" opacity="1"/><line transform="translate(0,171)" x2="-5" y2="0" stroke="#888" stroke-width="1" opacity="1"/><line transform="translate(0,129)" x2="-5" y2="0" stroke="#888" stroke-width="1" opacity="1"/><line transform="translate(0,86)" x2="-5" y2="0" stroke="#888" stroke-width="1" opacity="1"/><line transform="translate(0,43)" x2="-5" y2="0" stroke="#888" stroke-width="1" opacity="1"/><line transform="translate(0,0)" x2="-5" y2="0" stroke="#888" stroke-width="1" opacity="1"/></g><g class="mark-text role-axis-label" pointer-events="none"><text text-anchor="end" transform="translate(-7,303)" font-family="sans-serif" font-size="10px" fill="#000" opacity="1">0</text><text text-anchor="end" transform="translate(-7,260.14285714285717)" font-family="sans-serif" font-size="10px" fill="#000" opacity="1">200</text><text text-anchor="end" transform="translate(-7,217.28571428571428)" font-family="sans-serif" font-size="10px" fill="#000" opacity="1">400</text><text text-anchor="end" transform="translate(-7,174.42857142857142)" font-family="sans-serif" font-size="10px" fill="#000" opacity="1">600</text><text text-anchor="end" transform="translate(-7,131.57142857142858)" font-family="sans-serif" font-size="10px" fill="#000" opacity="1">800</text><text text-anchor="end" transform="translate(-7,88.71428571428571)" font-family="sans-serif" font-size="10px" fill="#000" opacity="1">1,000</text><text text-anchor="end" transform="translate(-7,45.85714285714287)" font-family="sans-serif" font-size="10px" fill="#000" opacity="1">1,200</text><text text-anchor="end" transform="translate(-7,3)" font-family="sans-serif" font-size="10px" fill="#000" opacity="1">1,400</text></g><g class="mark-rule role-axis-domain" pointer-events="none"><line transform="translate(0,300)" x2="0" y2="-300" stroke="#888" stroke-width="1" opacity="1"/></g><g class="mark-text role-axis-title" pointer-events="none"><text text-anchor="middle" transform="translate(-36.0244140625,150) rotate(-90) translate(0,-2)" font-family="sans-serif" font-size="11px" font-weight="bold" fill="#000" opacity="1">エピソード数</text></g></g><path class="foreground" aria-hidden="true" d="" pointer-events="none" display="none"/></g></g><g class="mark-group role-scope pathgroup" role="graphics-object" aria-roledescription="group mark container"><g transform="translate(0,0)"><path class="background" aria-hidden="true" d="M0,0h800v300h-800Z"/><g><g class="mark-line role-mark marks" role="graphics-object" aria-roledescription="line mark container"><path aria-label="年: 1970; エピソード数: 259; 雑誌名: 週刊少年サンデー; mcname: 週刊少年サンデー" role="graphics-symbol" aria-roledescription="line mark" d="M8.333,244.5L25,164.357L41.667,157.286L58.333,156.429L75,181.929L91.667,172.929L108.333,154.286L125,160.286L141.667,161.357L158.333,147.214L175,137.786L191.667,132L208.333,116.571L225,113.143L241.667,126.643L258.333,138.643L275,134.571L291.667,125.143L308.333,90.429L325,78.214L341.667,72.643L358.333,70.286L375,79.071L391.667,80.571L408.333,63.857L425,67.5L441.667,64.5L458.333,55.071L475,53.786L491.667,52.286L508.333,51.214L525,54.214L541.667,63.857L558.333,64.929L575,66.214L591.667,65.357L608.333,52.071L625,58.929L641.667,40.929L658.333,23.357L675,49.286L691.667,52.714L708.333,47.571L725,35.143L741.667,30.429L758.333,3.214L775,33.643L791.667,160.286" stroke="#d7191c" stroke-width="2" stroke-dasharray="1,0"/></g></g><path class="foreground" aria-hidden="true" d="" display="none"/></g><g transform="translate(0,0)"><path class="background" aria-hidden="true" d="M0,0h800v300h-800Z"/><g><g class="mark-line role-mark marks" role="graphics-object" aria-roledescription="line mark container"><path aria-label="年: 1970; エピソード数: 327; 雑誌名: 週刊少年ジャンプ; mcname: 週刊少年ジャンプ" role="graphics-symbol" aria-roledescription="line mark" d="M8.333,229.929L25,144.857L41.667,140.143L58.333,123.857L75,147L91.667,152.786L108.333,143.357L125,140.571L141.667,143.571L158.333,138.857L175,130.929L191.667,122.143L208.333,122.786L225,123.857L241.667,126.214L258.333,128.786L275,126L291.667,114.214L308.333,96.429L325,90.643L341.667,86.357L358.333,105.857L375,101.143L391.667,96.429L408.333,90.643L425,89.786L441.667,94.071L458.333,98.571L475,102.214L491.667,97.071L508.333,97.286L525,85.286L541.667,88.286L558.333,90L575,91.071L591.667,90.857L608.333,84.429L625,80.571L641.667,78.429L658.333,49.929L675,75.857L691.667,103.714L708.333,67.929L725,70.071L741.667,50.357L758.333,75.643L775,74.357L791.667,177" stroke="#abd9e9" stroke-width="2" stroke-dasharray="4,2"/></g></g><path class="foreground" aria-hidden="true" d="" display="none"/></g><g transform="translate(0,0)"><path class="background" aria-hidden="true" d="M0,0h800v300h-800Z"/><g><g class="mark-line role-mark marks" role="graphics-object" aria-roledescription="line mark container"><path aria-label="年: 1970; エピソード数: 387; 雑誌名: 週刊少年チャンピオン; mcname: 週刊少年チャンピオン" role="graphics-symbol" aria-roledescription="line mark" d="M8.333,217.071L25,129.429L41.667,144L58.333,145.714L75,166.5L91.667,164.786L108.333,153.643L125,142.071L141.667,142.286L158.333,140.786L175,127.714L191.667,126.643L208.333,127.286L225,124.286L241.667,117.643L258.333,118.5L275,124.5L291.667,97.286L308.333,93.643L325,101.143L341.667,97.5L358.333,90L375,96.643L391.667,108.643L408.333,99L425,86.357L441.667,92.143L458.333,75L475,62.571L491.667,57.429L508.333,54.643L525,50.357L541.667,51.643L558.333,58.071L575,51L591.667,73.929L608.333,31.5L625,25.071L641.667,42L658.333,51L675,47.571L691.667,53.357L708.333,54.643L725,64.714L741.667,70.071L758.333,74.786L775,67.071L791.667,175.714" stroke="#fdae61" stroke-width="2" stroke-dasharray="2,1"/></g></g><path class="foreground" aria-hidden="true" d="" display="none"/></g><g transform="translate(0,0)"><path class="background" aria-hidden="true" d="M0,0h800v300h-800Z"/><g><g class="mark-line role-mark marks" role="graphics-object" aria-roledescription="line mark container"><path aria-label="年: 1970; エピソード数: 228; 雑誌名: 週刊少年マガジン; mcname: 週刊少年マガジン" role="graphics-symbol" aria-roledescription="line mark" d="M8.333,251.143L25,172.929L41.667,171.429L58.333,168L75,193.071L91.667,178.714L108.333,156.214L125,148.714L141.667,143.571L158.333,128.786L175,134.357L191.667,132L208.333,141.643L225,135L241.667,129.643L258.333,129.857L275,136.071L291.667,120.214L308.333,94.714L325,77.357L341.667,82.929L358.333,91.286L375,101.786L391.667,99L408.333,91.071L425,83.143L441.667,80.786L458.333,70.929L475,77.786L491.667,70.286L508.333,66.429L525,69.643L541.667,66.857L558.333,72L575,57.857L591.667,37.714L608.333,44.571L625,42.429L641.667,41.571L658.333,36.214L675,19.5L691.667,24.643L708.333,25.714L725,30.214L741.667,30.643L758.333,37.5L775,38.786L791.667,156.429" stroke="#2c7bb6" stroke-width="2" stroke-dasharray="1,1"/></g></g><path class="foreground" aria-hidden="true" d="" display="none"/></g></g><g class="mark-group role-legend" role="graphics-symbol" aria-roledescription="legend" aria-label="Symbol legend titled '雑誌名' for stroke color and strokeDash with 4 values: 週刊少年サンデー, 週刊少年ジャンプ, 週刊少年チャンピオン, 週刊少年マガジン"><g transform="translate(818,0)"><path class="background" aria-hidden="true" d="M0,0h158v83h-158Z" pointer-events="none"/><g><g class="mark-group role-legend-entry"><g transform="translate(0,21)"><path class="background" aria-hidden="true" d="M0,0h0v0h0Z" pointer-events="none"/><g><g class="mark-group role-scope" role="graphics-object" aria-roledescription="group mark container"><g transform="translate(0,0)"><path class="background" aria-hidden="true" d="M0,0h158v14h-158Z" pointer-events="none" opacity="1"/><g><g class="mark-symbol role-legend-symbol" pointer-events="none"><path transform="translate(7,7)" d="M-5,0L5,0" stroke="#d7191c" stroke-width="1.5" stroke-dasharray="1,0" opacity="1"/></g><g class="mark-text role-legend-label" pointer-events="none"><text text-anchor="start" transform="translate(18,11)" font-family="sans-serif" font-size="14px" fill="#000" opacity="1">週刊少年サンデー</text></g></g><path class="foreground" aria-hidden="true" d="" pointer-events="none" display="none"/></g><g transform="translate(0,16)"><path class="background" aria-hidden="true" d="M0,0h158v14h-158Z" pointer-events="none" opacity="1"/><g><g class="mark-symbol role-legend-symbol" pointer-events="none"><path transform="translate(7,7)" d="M-5,0L5,0" stroke="#abd9e9" stroke-width="1.5" stroke-dasharray="4,2" opacity="1"/></g><g class="mark-text role-legend-label" pointer-events="none"><text text-anchor="start" transform="translate(18,11)" font-family="sans-serif" font-size="14px" fill="#000" opacity="1">週刊少年ジャンプ</text></g></g><path class="foreground" aria-hidden="true" d="" pointer-events="none" display="none"/></g><g transform="translate(0,32)"><path class="background" aria-hidden="true" d="M0,0h158v14h-158Z" pointer-events="none" opacity="1"/><g><g class="mark-symbol role-legend-symbol" pointer-events="none"><path transform="translate(7,7)" d="M-5,0L5,0" stroke="#fdae61" stroke-width="1.5" stroke-dasharray="2,1" opacity="1"/></g><g class="mark-text role-legend-label" pointer-events="none"><text text-anchor="start" transform="translate(18,11)" font-family="sans-serif" font-size="14px" fill="#000" opacity="1">週刊少年チャンピオン</text></g></g><path class="foreground" aria-hidden="true" d="" pointer-events="none" display="none"/></g><g transform="translate(0,48)"><path class="background" aria-hidden="true" d="M0,0h158v14h-158Z" pointer-events="none" opacity="1"/><g><g class="mark-symbol role-legend-symbol" pointer-events="none"><path transform="translate(7,7)" d="M-5,0L5,0" stroke="#2c7bb6" stroke-width="1.5" stroke-dasharray="1,1" opacity="1"/></g><g class="mark-text role-legend-label" pointer-events="none"><text text-anchor="start" transform="translate(18,11)" font-family="sans-serif" font-size="14px" fill="#000" opacity="1">週刊少年マガジン</text></g></g><path class="foreground" aria-hidden="true" d="" pointer-events="none" display="none"/></g></g></g><path class="foreground" aria-hidden="true" d="" pointer-events="none" display="none"/></g></g><g class="mark-text role-legend-title" pointer-events="none"><text text-anchor="start" transform="translate(0,13)" font-family="sans-serif" font-size="16px" font-weight="bold" fill="#000" opacity="1">雑誌名</text></g></g><path class="foreground" aria-hidden="true" d="" pointer-events="none" display="none"/></g></g><g class="mark-group role-title"><g transform="translate(400,-27)"><path class="background" aria-hidden="true" d="M0,0h0v0h0Z" pointer-events="none"/><g><g class="mark-text role-title-text" role="graphics-symbol" aria-roledescription="title" aria-label="Title text 'エピソード数の推移'" pointer-events="none"><text text-anchor="middle" transform="translate(0,14)" font-family="sans-serif" font-size="18px" font-weight="bold" fill="#000" opacity="1">エピソード数の推移</text></g></g><path class="foreground" aria-hidden="true" d="" pointer-events="none" display="none"/></g></g></g><path class="foreground" aria-hidden="true" d="" display="none"/></g></g></g></svg>